<?xml version="1.0" encoding="UTF-8" standalone="no"?>
<svg
   class="img-fluid"
   id="outputsvg"
   width="598.26904"
   height="313.37003"
   viewBox="0 0 5982.6905 3133.7002"
   version="1.1"
   sodipodi:docname="icon.svg"
   inkscape:version="1.3.2 (091e20e, 2023-11-25)"
   inkscape:export-filename="icon.png"
   inkscape:export-xdpi="300"
   inkscape:export-ydpi="300"
   xmlns:inkscape="http://www.inkscape.org/namespaces/inkscape"
   xmlns:sodipodi="http://sodipodi.sourceforge.net/DTD/sodipodi-0.dtd"
   xmlns="http://www.w3.org/2000/svg"
   xmlns:svg="http://www.w3.org/2000/svg">
  <defs
     id="defs5" />
  <sodipodi:namedview
     id="namedview5"
     pagecolor="#ffffff"
     bordercolor="#000000"
     borderopacity="0.25"
     inkscape:showpageshadow="2"
     inkscape:pageopacity="0.0"
     inkscape:pagecheckerboard="0"
     inkscape:deskcolor="#d1d1d1"
     showgrid="false"
     showguides="false"
     inkscape:zoom="2.5416311"
     inkscape:cx="99.739102"
     inkscape:cy="134.95271"
     inkscape:window-width="1712"
     inkscape:window-height="981"
     inkscape:window-x="0"
     inkscape:window-y="43"
     inkscape:window-maximized="1"
     inkscape:current-layer="outputsvg" />
  <path
     id="path15"
     style="fill:#6e3c1d;fill-opacity:1;stroke-width:0.960728"
     d="m 374.88822,676.04527 c -81.67605,-8.56849 -168.42961,18.43099 -230.9587,71.91234 -52.80701,52.82245 -37.57008,96.77997 37.65745,108.92373 109.99978,23.52289 44.13101,376.39146 21.48313,558.96056 -27.72871,223.5273 -91.80214,392.1118 117.78061,550.4799 L 511.5545,1775.5449 C 29.818386,1422.4787 628.73606,1200.9298 544.81218,812.68806 518.97024,739.21665 477.25382,686.78423 374.88822,676.04527 Z"
     sodipodi:nodetypes="sccscccs" />
  <g
     id="l7IUenEGTAHev7w3zg1juv4"
     fill="#20c865"
     transform="translate(-163.10206,195.00157)">
    <g
       id="g3">
      <path
         id="pkvx5mY7x"
         d="m 3276,957 c -29.2926,-51.92777 -53.6189,-275.57746 184,-433 45,-30 342,-186 345,-182 65.959,111.62287 -2.7855,580.77546 -344,684 -76.8623,28.9192 -140.7048,-5.9007 -185,-69 z"
         sodipodi:nodetypes="ccccc" />
    </g>
  </g>
  <path
     id="pEjTxlDpS"
     d="M 1006.0992,2528.0681 C 816.14614,2318.7577 812.6111,2306.9125 759.5985,2227.0301 731.4826,2184.6635 696.96947,2115.0758 607.89795,2000.0015 l 2,235 2,234 c 0.85944,99.4425 -229.95138,309.7462 -289,118 -64.85945,-97.399 -76.72163,-417.298 -66.8413,-541.5255 L 1236.898,895.00157 c -68.7824,-48.83758 -129.8029,-76.46583 -59,-188 36.2929,-51.98819 249.232,-42 423,-42 93.8848,4.96193 319.3097,-14.66367 326,94 -0.2567,29.9989 -53,97 -88,112 -52.345,20.93802 -269.715,8.75127 -287,39 -6.1035,12.20691 -25.1033,31.19884 -502,662.99993 -84.00002,112 -156.53998,212.6475 -153.00002,222 64.71177,170.9665 102.09054,484.8875 375.38812,683.1061 215.3678,156.203 519.7093,215.1978 672.1635,36.6024 73.8233,-86.4817 222.3859,81.288 -56,241 -103.4872,59.3714 -583.1769,102.0193 -882.3504,-227.6419 z"
     style="fill:#6e3c1d;fill-opacity:1"
     sodipodi:nodetypes="ssccccccccscccsssss" />
  <path
     id="pvb2HpcMK"
     d="m 5219.9861,2270.88 c -57.8447,-70.5547 52.1822,-208.6767 139.3642,-235.5705 81.6468,-25.1862 160.1367,134.7909 232.1172,108.7494 163.4901,-59.1481 -187.9462,-164.7676 -280.6699,-439.627 -72.2837,-214.0711 154.5436,-335.895 237.3688,-356.9522 133.9694,-34.1667 258.9477,-30.5702 382.1276,11.6886 46.7545,16.1842 49.4519,18.8816 52.1492,51.2501 1.7983,20.6798 -6.2938,61.1404 -21.5789,102.5001 -18.8816,53.9474 -30.5703,72.8291 -51.2501,84.5177 -99.3412,62.7053 -180.2219,-168.4848 -310.1978,-78.2238 -83.6101,89.8027 90.0689,226.0521 142.0616,277.8293 126.7765,124.9782 153.7502,167.237 160.0441,258.0486 5.3947,71.9299 -17.0834,133.9694 -68.3334,191.5134 -121.0869,135.0048 -458.0941,213.4662 -613.2026,24.2763 z"
     style="fill:#6e3c1d;fill-opacity:1;stroke-width:0.899124"
     sodipodi:nodetypes="sasccccccccccs" />
  <path
     id="pERd0BtUx"
     d="m 1380.898,2255.0015 c -199.782,-218.9391 -113.6922,-628.7336 98,-772 208.0288,-142.8317 417.3184,-98.1295 550,127 93,182 90,367 -9,535 -187.8183,320.9985 -495.5394,271.0272 -639,110 z m 436,-330 c 0,-160.0273 -105.631,-220 -175,-220 -94.9421,0 -111.4486,63.9514 -109,157 8.0396,233.1485 278.4474,315.8392 284,63 z"
     style="fill:#6e3c1d;fill-opacity:1"
     sodipodi:nodetypes="cccccsscs" />
  <path
     id="pZSbaC6sT"
     d="m 2380.898,2362.0015 c -102,-44 -177,-137 -207,-259 -57,-225 39,-489 223,-614 89.7532,-58.8346 195.3454,-74 300,-74 v -147 c 0,-182.9999 -11,-215.9999 -75,-220.9999 -76,-6 -95,-52.00003 -47,-114.00003 70.9263,-78.31328 181.9168,-116.78123 280,-92 64.1288,13.86621 100.9564,66.52223 125,124 4,14 7,276.99993 7,584.99993 1,423 4,566 13,585 32.0129,60.8246 129.162,-8.9723 112,94 -15,98 -162,171 -271,136 -118.1857,-39.3952 -52.5639,-138.8654 -153,-66 -101.5653,73.4395 -206.7337,105.9713 -307,63 z m 316,-526 v -141 c -61.3117,-3.3117 -123.4179,-12.7584 -176,25 -118.3434,89.8533 -97.1314,365 37,365 132.708,-2.6341 138.3347,-148.5701 139,-249 z"
     style="fill:#6e3c1d;fill-opacity:1"
     sodipodi:nodetypes="ccccsccccccccccsccss" />
  <path
     id="pKk3lYaWt"
     d="m 3152.5947,2264.3546 c -30.6057,-208.4029 -3.5809,-429.0821 4.5086,-640.2966 -222.7449,-50.246 -54.5948,-238.6516 104.1467,-212.3971 239.4205,39.598 61.9228,522.3113 170.2766,755.2975 32.0446,9.2374 69.8557,11.0659 95.7808,33.6904 72.7356,120.3502 -278.8995,311.4873 -374.7127,63.7058 z"
     style="fill:#6e3c1d;fill-opacity:1"
     sodipodi:nodetypes="ccsccc" />
  <path
     id="p1Aik8Gb9W"
     d="m 3831.898,2367.0015 c -254.2986,-64.4223 -487.0356,-443.3016 -152,-829 108,-117 302,-171 455,-127 149,43 201,134 151,262 -20,52 -29,63 -66,81 -120.1443,64.5745 -156.9043,-49.0691 -178,-144 -415.9248,-24.965 -221.152,651.5077 134,495 86,-39 131,-18 131,61 -2.9291,111.3047 -223.4466,267.0328 -475,201 z"
     style="fill:#6e3c1d;fill-opacity:1"
     sodipodi:nodetypes="ccccccccc" />
  <path
     id="p9jCdYy0O"
     d="m 4642.898,2368.0015 c -310.2448,-84.264 -318.8002,-398.9607 -319,-423 -2.6575,-427.8508 407.6122,-672.7793 684,-481 69,48 119,146 119,232 0,48 -7,73 -34,127 -56,109 -135,170 -303,232 -113,42 -120,59 -38,89 183.6958,68.8859 308.847,-49 365,-49 21,0 44,70 35,109 -23.3383,103.9613 -302.6451,221.1827 -509,164 z m 113,-760 c -150.7838,-8.6318 -141.0128,183.8692 -139,287 228.2084,14.5546 310.2507,-267.4904 139,-287 z"
     style="fill:#6e3c1d;fill-opacity:1"
     sodipodi:nodetypes="cccscccsccccc" />
  <g
     id="l2Zpu2UJixjSE91aAFRk12H"
     fill="rgb(243,115,68)"
     style="fill:#df451e;fill-opacity:1"
     transform="translate(-0.25472048,-1.3731616)">
    <g
       style="fill:#df451e;fill-opacity:1"
       id="g4">
      <path
         id="pMH1UtmwU"
         d="M 1095.7867,327.52797 C 1140.932,248.52367 934.26052,272.15764 925,279.21328 876.85114,317.73237 528.35902,403.15415 522,365 515.42546,325.55278 362.36881,298.78605 352,108 c -4,-56 -1,-73 13,-88 23,-25 37,-25 116,1 60,20 78,21 287,15 119.7529,-1.98995 182.66221,-24.617443 288,24 51,25 71,42 99,83 20,29 38,69 41,90 l 7,37 c 151.1496,28.04211 376.382,12.07657 474,50 108.471,42.1397 -139.9669,11.83534 -502,180 -156.4209,95.59054 -102.1456,-132.97743 -79.2133,-172.47203 z"
         sodipodi:nodetypes="ccsccccccccscc"
         style="fill:#df451e;fill-opacity:1" />
    </g>
  </g>
  <path
     style="fill:#fcd082"
     d="m 303.92869,1806.6797 c -61.54123,36.5851 -127.74452,63.4442 -198.18359,76.9531 l -59.003905,10.9961 -24.003906,69.0039 c -32.999967,98.9999 -30.9882389,128.9883 12.011719,152.9883 29.99997,17 67.996152,13.996 130.996092,-9.0039 27.07448,-14.4269 77.03347,-52.8519 138.18359,-105.0391 z"
     id="path13" />
  <path
     id="poeeYUAkT"
     style="fill:#fcd082"
     d="m 994.86618,255.50781 c -60.98171,1.54904 -121.68621,16.75334 -185.11718,44.12109 -94.14601,30.97185 -187.94607,59.1421 -288.00781,52.98828 -34.91259,30.39673 -7.64321,88.65883 5.99609,132.01172 21.50023,76.60099 -39.00094,130.25537 -61.99219,202.98828 -30.99992,83.99984 -32.00777,91.00779 -13.00781,73.00781 634.39172,-286.40826 145.85266,561.77221 145.85266,755.13671 -87.35573,58.4459 -192.94758,138.4273 -209.23156,203.6719 -51.82819,207.6587 -92.58208,944.5833 130.15625,1095.2929 57.92187,-63.6236 91.66907,-205.58 93.57421,-255.3906 6.95097,-181.7355 19.74384,-542.5807 42.92969,-851.8945 0.56223,-7.5004 0.77582,-24.2563 1.01563,-44.2969 140.35128,-149.8468 262.37656,-302.2385 291.71874,-396.5234 65.9999,-155.9998 89,-339.9924 55,-441.9922 -52.42122,-166.05124 38.0209,-257.7319 180.9961,-330.99609 -27.665,-2.37129 -57.6628,-2.30909 -82.0117,-17.01172 -46.0578,-52.96602 24.9373,-143.49908 46.0156,-195.99609 -43.5623,-15.1521 -85.8199,-23.30725 -127.7344,-24.94141 -8.7322,-0.34045 -17.4407,-0.39707 -26.15232,-0.17578 z"
     sodipodi:nodetypes="sccccccscssccccccss" />
  <ellipse
     style="fill:#4d4d4d;fill-opacity:1;stroke-width:80"
     id="path5"
     cx="920.19183"
     cy="394.6153"
     rx="98.241417"
     ry="99.752823" />
  <path
     id="p5yoKnmSa"
     style="fill:#333333;fill-opacity:1"
     d="M 684.33884,671.1914 C 576.97365,673.9165 464.65858,732.79247 439.98338,753.14453 193.03292,1112.0178 40.078599,1711.5421 20.081039,1886.2305 c -22.0911685,82.9655 112.324981,54.8042 235.585931,-17.9883 -35.22548,271.7134 -23.7439,969.4703 202.16797,978.0273 22.78687,0.8631 43.35009,-11.5981 61.58203,-31.6016 C 296.78331,2663.8157 337.53742,1927.0633 389.35838,1719.4336 416.79202,1609.5158 911.13936,1404.1321 898.98728,926.15234 894.12418,721.90022 791.70404,668.46629 684.33884,671.1914 Z m -28.32031,1036.25 c -5.79646,77.3284 -10.93937,157.8808 -15.50781,238.0469 4.56844,-80.1661 9.71134,-160.7185 15.50781,-238.0469 z m -15.50781,238.0469 c -4.56845,80.166 -8.5486,159.946 -12.03125,235.7422 3.48265,-75.7962 7.4628,-155.5762 12.03125,-235.7422 z m -30.52735,641.8554 c -0.49053,3.2265 -1.18805,6.8413 -1.79687,10.3125 0.62261,-3.55 1.29767,-7.0184 1.79687,-10.3125 z m -7.1875,36.9336 c -1.00541,4.4611 -1.9934,8.8898 -3.14453,13.5352 1.17155,-4.7311 2.12388,-8.9954 3.14453,-13.5352 z m -12.85156,48.4766 c -0.91533,3.0046 -1.6107,5.8838 -2.57812,8.9062 0.97195,-3.0404 1.65883,-5.8839 2.57812,-8.9062 z m -2.83203,9.668 c -3.56714,11.0982 -7.56146,22.2562 -11.81641,33.2812 4.25612,-11.0394 8.24926,-22.1687 11.81641,-33.2812 z m -14.72656,40.7617 c -1.39735,3.4683 -2.83233,6.9133 -4.29688,10.332 1.46758,-3.4292 2.89687,-6.8529 4.29688,-10.332 z m -9.1211,21.1523 c -1.57197,3.4281 -3.1247,6.8913 -4.76562,10.2344 1.64393,-3.3519 3.19096,-6.797 4.76562,-10.2344 z m -13.92578,27.7344 c -1.59335,2.8471 -3.27384,5.501 -4.92187,8.2422 1.64838,-2.7436 3.32826,-5.3925 4.92187,-8.2422 z m -11.30859,18.457 c -1.72538,2.602 -3.49406,5.1106 -5.27344,7.5781 1.78292,-2.4735 3.54479,-4.9693 5.27344,-7.5781 z m -12.22656,16.5821 c -1.83437,2.2625 -3.64096,4.5964 -5.52735,6.6992 1.88996,-2.1068 3.68965,-4.4318 5.52735,-6.6992 z"
     sodipodi:nodetypes="scccscscsccccccccccccccccccccccccccccccccc" />
</svg>
